<svg width="94" height="56" viewBox="0 0 94 56" fill="none" xmlns="http://www.w3.org/2000/svg">
<path d="M29.1924 13.7988H58.3848V27.7314H72.9805V28.043C72.9805 43.1459 60.156 55.3896 44.3359 55.3896H43.2412C27.421 55.3896 14.5957 43.146 14.5957 28.043V27.7334H0V13.7988H14.5957V0H29.1924V13.7988ZM29.1924 28.043C29.1924 35.4502 35.4823 41.4551 43.2412 41.4551H44.3359C52.0948 41.455 58.3848 35.4501 58.3848 28.043V27.7334H51.0859C51.0682 31.5668 47.8077 34.6689 43.7881 34.6689C39.7687 34.6687 36.509 31.5667 36.4912 27.7334H29.1924V28.043ZM93.623 21.001L83.3018 30.8545L72.9805 21.001L83.3018 11.1475L93.623 21.001ZM38.9141 25.4287C37.5814 25.4287 36.5012 26.4602 36.501 27.7324C36.501 29.0048 37.5812 30.0371 38.9141 30.0371C40.2468 30.0371 41.3271 29.0048 41.3271 27.7324C41.3269 26.4603 40.2467 25.4288 38.9141 25.4287Z" fill="black"/>
</svg>
